<svg width="100" height="100" viewBox="0 0 100 100" fill="none" xmlns="http://www.w3.org/2000/svg">
<path d="M45.7981 19.7089C51.2349 19.7089 55.652 15.2969 55.652 9.85457C55.652 4.41059 51.2349 0 45.7981 0C40.3549 0 35.9415 4.41059 35.9415 9.85457C35.9415 15.2969 40.3549 19.7089 45.7981 19.7089Z" fill="white"/>
<path d="M61.0261 75.5502C58.4074 84.6425 50.0253 91.3199 40.101 91.3199C28.0829 91.3199 18.3095 81.546 18.3095 69.5316C18.3095 60.638 23.6748 52.9834 31.3317 49.6009V40.3638C18.7924 44.1406 9.63055 55.7807 9.63055 69.5316C9.63055 86.331 23.2993 100 40.1008 100C52.3449 100 62.8985 92.723 67.7376 82.2818L64.2972 75.5223C63.3315 75.5302 62.2127 75.5404 61.0261 75.5502Z" fill="white"/>
<path d="M89.7362 87.2477L76.5365 61.2968C75.5513 59.355 73.5598 58.1328 71.3812 58.1328H54.4753V54.2778H69.0252C70.4781 54.2778 71.6993 53.5184 72.4882 52.4244C73.0008 51.7118 73.3654 50.8839 73.3654 49.9373C73.3654 47.541 71.4245 45.5974 69.0252 45.5974H60.2595H54.4753V32.522C54.4753 28.9259 51.8089 23.8419 45.7982 23.8419C41.0045 23.8419 37.1183 27.7286 37.1183 32.522V60.8511C37.1183 65.7411 41.0825 69.7054 45.9728 69.7054H61.8811H67.8335L79.4243 92.4945C80.4428 94.5017 82.4755 95.6599 84.5849 95.6599C85.4691 95.6599 86.3657 95.4579 87.2035 95.029C90.0561 93.5822 91.1891 90.0962 89.7362 87.2477Z" fill="white"/>
</svg>
