<svg width="100" height="100" viewBox="0 0 100 100" fill="none" xmlns="http://www.w3.org/2000/svg">
<path d="M44.385 19.1408C49.6706 19.1408 53.9554 14.856 53.9554 9.57041C53.9554 4.28482 49.6706 0 44.385 0C39.0994 0 34.8146 4.28482 34.8146 9.57041C34.8146 14.856 39.0994 19.1408 44.385 19.1408Z" fill="white"/>
<path d="M58.8329 30.7189C51.8154 20.8475 36.0249 20.2471 36.0249 30.6023L36.0927 50.6745C34.1008 53.3377 32.8416 57.2018 32.8416 61.5072C32.8416 65.874 34.1323 69.7775 36.1668 72.4439L36.2424 94.6467C36.2424 97.6015 38.6409 100 41.5989 100H42.8801C45.8364 100 47.4675 97.9891 48.235 94.6467C49.3412 89.8229 52.7263 75.3719 52.7263 75.3719C58.6564 73.93 67.1567 65.7905 67.1567 53.9665C67.163 42.1426 60.4592 33.0024 58.8329 30.7189Z" fill="white"/>
</svg>
