<svg width="100" height="100" viewBox="0 0 100 100" fill="none" xmlns="http://www.w3.org/2000/svg">
<g clip-path="url(#clip0)">
<path d="M50.9892 28.0336C58.4751 28.0336 64.5393 21.7557 64.5393 14.0247C64.5393 6.27791 58.4751 0 50.9892 0C43.497 0 37.4202 6.27791 37.4202 14.0247C37.4202 21.7557 43.497 28.0336 50.9892 28.0336Z" fill="white"/>
<path d="M75.0323 39.9194C74.3592 37.875 70.5156 31.6758 60.0856 31.6191L39.6692 31.6726C29.5443 31.1065 25.5026 37.0887 24.8703 39.7402C24.8703 39.7402 18.0324 61.5713 19.2056 66.6289C19.9321 69.7678 25.3799 73.6082 31.1799 76.4641L23.4549 100H77.926L70.4118 75.64C75.589 72.9005 80.1372 69.4816 80.7946 66.6289C81.9835 61.5116 75.0323 39.9194 75.0323 39.9194ZM41.8552 63.9774C40.9085 64.3989 39.8611 64.6411 38.7633 64.6411C34.5045 64.6411 31.0572 61.1373 31.0572 56.8189C31.0572 52.5004 34.5077 48.9998 38.7633 48.9998C42.9435 48.9998 46.3782 52.3841 46.4915 56.605C47.8188 55.652 49.1776 55.2054 50.1967 55.0198C50.1967 55.0261 50.1967 55.0324 50.1967 55.0418C51.7285 54.7493 52.9174 55.0418 52.9174 55.0418C58.0569 56.1804 69.4147 61.2191 69.4147 61.2191C69.4147 61.2191 63.3191 68.7677 52.2474 68.7205C51.9581 68.7205 51.675 68.7142 51.4076 68.7016H51.4045C50.3854 68.6764 49.4701 68.6104 48.646 68.5097C43.4184 67.8933 41.9213 65.9432 41.8552 63.9774Z" fill="white"/>
</g>
<defs>
<clipPath id="clip0">
<rect width="100" height="100" fill="white"/>
</clipPath>
</defs>
</svg>
