<svg width="100" height="100" viewBox="0 0 100 100" fill="none" xmlns="http://www.w3.org/2000/svg">
<path d="M77.0125 38.6511C73.3546 39.372 68.1551 40.5757 65.706 36.9179C64.3042 34.8267 63.3435 32.376 62.536 29.8436C64.3058 26.92 64.3225 22.7694 62.6825 19.9707C59.9021 15.2223 54.601 14.6329 49.9675 16.6625C38.07 21.8687 31.2022 36.2519 28.4418 48.4375C27.7325 49.8376 27.5311 51.4776 28.1338 53.0576C28.3769 54.4944 28.9529 55.7747 29.7604 56.8619C28.0705 68.3016 24.8955 80.4838 18.5239 90.1137C14.2301 96.5969 24.6441 102.607 28.903 96.1807C34.6619 87.4831 37.9818 77.144 40.0929 66.7482C41.0419 68.0419 41.9143 69.3821 42.6602 70.794C45.424 76.0318 39.2221 82.4617 36.207 85.983C31.1956 91.8385 39.6567 100.38 44.7047 94.4824C50.4337 87.7895 56.8453 79.6297 54.9689 70.2113C53.8118 64.404 50.1307 59.4126 45.9851 54.8774C46.0417 54.6742 46.1016 54.4761 46.1482 54.2597C47.5434 47.6649 50.0741 39.938 55.237 35.3579C56.3242 38.2765 57.6811 41.0352 59.6191 43.3128C64.0244 48.4874 70.7008 48.5074 76.9026 47.5151L76.9808 99.8851L79.1619 100L79.0853 47.1288C79.1719 47.1122 79.2584 47.0955 79.34 47.0805C84.8659 45.9917 82.5184 37.5672 77.0125 38.6511Z" fill="white"/>
<path d="M66.8665 18.2475C71.9054 18.2475 75.9902 14.1627 75.9902 9.12375C75.9902 4.08484 71.9054 0 66.8665 0C61.8275 0 57.7427 4.08484 57.7427 9.12375C57.7427 14.1627 61.8275 18.2475 66.8665 18.2475Z" fill="white"/>
</svg>
